Coordinates
version=1
nRows=5
nColumns=40
inDegrees=yes

Units are S.I. units (second, meters, Newtons, ...)
Angles are in degrees.

endheader
time	pelvis_tilt	pelvis_list	pelvis_rotation	pelvis_tx	pelvis_ty	pelvis_tz	hip_flexion_r	hip_adduction_r	hip_rotation_r	knee_angle_r	knee_angle_r_beta	ankle_angle_r	subtalar_angle_r	mtp_angle_r	hip_flexion_l	hip_adduction_l	hip_rotation_l	knee_angle_l	knee_angle_l_beta	ankle_angle_l	subtalar_angle_l	mtp_angle_l	lumbar_extension	lumbar_bending	lumbar_rotation	arm_flex_r	arm_add_r	arm_rot_r	elbow_flex_r	pro_sup_r	wrist_flex_r	wrist_dev_r	arm_flex_l	arm_add_l	arm_rot_l	elbow_flex_l	pro_sup_l	wrist_flex_l	wrist_dev_l
      4.74314286	     -7.81510173	     -6.02260733	      4.03402559	      0.77387400	      0.91804419	      0.51190749	      4.62894013	      5.07482969	    -15.78772177	     12.63138339	     12.63138339	     16.75256969	      2.50022570	     -2.18236959	     33.17897008	     -7.48098844	     -0.69865246	     17.30881949	     17.30881949	      3.17135932	     -9.33468136	      3.97666710	     -9.42978198	      5.99891471	      2.69003210	     37.23175249	    -13.90509242	     -0.35968082	     92.06592101	     44.45171202	      0.00000000	      0.00000000	     -6.86852342	     -6.47279199	     -9.81838860	     30.58352099	     46.15535618	      0.00000000	      0.00000000
      4.75628571	     -7.79913125	     -6.21755453	      3.78825028	      0.77567814	      0.91711982	      0.51050710	      3.77011454	      5.27232873	    -15.62979585	     12.15403989	     12.15403989	     16.97215680	      3.00464079	     -2.17487518	     32.89367152	     -7.71674419	     -0.74423230	     17.95851798	     17.95851798	      2.44041419	     -9.65086761	      3.96127170	     -9.18786361	      6.11435418	      2.84402152	     37.12476484	    -13.37265226	     -0.14807149	     92.27959685	     44.44852395	      0.00000000	      0.00000000	     -7.16461653	     -6.35433394	     -9.51293012	     30.47281698	     46.10328717	      0.00000000	      0.00000000
      4.76942857	     -7.75765389	     -6.33282188	      3.56795892	      0.77751608	      0.91632858	      0.50888602	      2.93479172	      5.31831308	    -15.69511934	     11.80693544	     11.80693544	     17.20898160	      3.77766224	     -2.17304180	     32.56356338	     -7.85358173	     -0.77291026	     18.57001069	     18.57001069	      1.57324449	    -10.08813071	      3.27997282	     -8.97603597	      6.16239592	      2.92190093	     36.94631215	    -12.91449537	      0.32634590	     92.22337105	     44.46380206	      0.00000000	      0.00000000	     -7.46237469	     -6.37574102	     -8.58004849	     30.45946630	     45.95609089	      0.00000000	      0.00000000
      4.78257143	     -7.77132432	     -6.40903303	      3.34489346	      0.77913045	      0.91559081	      0.50713997	      2.34207872	      5.28417452	    -15.51827853	     11.76374550	     11.76374550	     17.39949195	      4.03550264	     -2.20191388	     32.44299100	     -7.93821189	     -0.75308350	     19.43120549	     19.43120549	      1.14152792	    -10.52136102	      3.15721779	     -8.79448201	      6.14392365	      3.05698454	     36.54866836	    -12.59012647	      0.56985567	     92.12538740	     44.46400145	      0.00000000	      0.00000000	     -7.52977482	     -6.29567756	     -8.33433615	     30.44805644	     45.91790563	      0.00000000	      0.00000000
      4.79571429	     -7.75595502	     -6.38347980	      3.11512076	      0.78076766	      0.91516226	      0.50523185	      1.76377483	      5.11337450	    -15.30648268	     11.81186185	     11.81186185	     17.56216145	      4.21485643	     -2.23933226	     32.22298582	     -7.91917437	     -0.77878565	     20.18944492	     20.18944492	      0.98360050	    -10.92187870	      3.06311171	     -8.64821357	      6.00275828	      3.19872061	     35.95814177	    -12.24092131	      0.83247768	     91.96737566	     44.46059311	      0.00000000	      0.00000000	     -7.51574723	     -6.16097782	     -8.20070496	     30.44671432	     45.89770686	      0.00000000	      0.00000000
